HIERARCHY
ROOT Hips
{
	OFFSET 0.000000 0.000000 0.000000 
	CHANNELS 6 Xposition Yposition Zposition Zrotation Yrotation Xrotation
	JOINT LeftUpLeg
	{
		OFFSET 1.363060 -1.794630 0.839290 
		CHANNELS 3 Zrotation Yrotation Xrotation
		JOINT LeftLeg
		{
			OFFSET 2.448110 -6.726130 0.000000 
			CHANNELS 3 Zrotation Yrotation Xrotation
			JOINT LeftFoot
			{
				OFFSET 2.562200 -7.039590 0.000000 
				CHANNELS 3 Zrotation Yrotation Xrotation
				JOINT LeftToeBase
				{
					OFFSET 0.157640 -0.433110 2.322550 
					CHANNELS 3 Zrotation Yrotation Xrotation
					End Site
					{
						OFFSET 0.000000 0.000000 0.000000 
					}
				}
			}
		}
	}
	JOINT RightUpLeg
	{
		OFFSET -1.305520 -1.794630 0.839290 
		CHANNELS 3 Zrotation Yrotation Xrotation
		JOINT RightLeg
		{
			OFFSET -2.542530 -6.985550 0.000000 
			CHANNELS 3 Zrotation Yrotation Xrotation
			JOINT RightFoot
			{
				OFFSET -2.568260 -7.056230 0.000000 
				CHANNELS 3 Zrotation Yrotation Xrotation
				JOINT RightToeBase
				{
					OFFSET -0.164730 -0.452590 2.363150 
					CHANNELS 3 Zrotation Yrotation Xrotation
					End Site
					{
						OFFSET 0.000000 0.000000 0.000000 
					}
				}
			}
		}
	}
	JOINT Spine
	{
		OFFSET 0.028270 2.035590 -0.193380 
		CHANNELS 3 Zrotation Yrotation Xrotation
		JOINT Spine1
		{
			OFFSET 0.056720 2.048850 -0.042750 
			CHANNELS 3 Zrotation Yrotation Xrotation
			JOINT Neck1
			{
				OFFSET -0.054170 1.746240 0.172020 
				CHANNELS 3 Zrotation Yrotation Xrotation
				JOINT Head
				{
					OFFSET 0.104070 1.761360 -0.123970 
					CHANNELS 3 Zrotation Yrotation Xrotation
					End Site
					{
						OFFSET 0.000000 0.000000 0.000000 
					}
				}
			}
			JOINT LeftArm
			{
				OFFSET 3.362410 1.200890 -0.311210 
				CHANNELS 3 Zrotation Yrotation Xrotation
				JOINT LeftForeArm
				{
					OFFSET 4.983000 -0.000000 -0.000000 
					CHANNELS 3 Zrotation Yrotation Xrotation
					JOINT LeftHand
					{
						OFFSET 3.483560 -0.000000 -0.000000 
						CHANNELS 3 Zrotation Yrotation Xrotation
						JOINT LeftHandIndex1
						{
							OFFSET 0.715260 -0.000000 -0.000000 
							CHANNELS 3 Zrotation Yrotation Xrotation
							End Site
							{
								OFFSET 0.000000 0.000000 0.000000 
							}
						}
					}
				}
			}
			JOINT RightArm
			{
				OFFSET -3.136600 1.374050 -0.404650 
				CHANNELS 3 Zrotation Yrotation Xrotation
				JOINT RightForeArm
				{
					OFFSET -5.241900 -0.000000 -0.000000 
					CHANNELS 3 Zrotation Yrotation Xrotation
					JOINT RightHand
					{
						OFFSET -3.444170 -0.000000 -0.000000 
						CHANNELS 3 Zrotation Yrotation Xrotation
						JOINT RightHandIndex1
						{
							OFFSET -0.622530 -0.000000 -0.000000 
							CHANNELS 3 Zrotation Yrotation Xrotation
							End Site
							{
								OFFSET 0.000000 0.000000 0.000000 
							}
						}
					}
				}
			}
		}
	}
}
MOTION
Frames: 7
Frame Time: 0.041667
-9.787713 17.519998 14.946089 177.223160 -13.996432 -172.540866 -27.392465 -3.918945 -12.803966 1.962800 8.255412 27.033997 -0.986947 6.837209 -8.752751 0.455400 -4.329000 -12.004300 15.943653 7.263977 -35.416625 -4.662614 -13.530518 41.196131 0.767702 -6.033375 -6.239471 -0.152200 -2.514200 6.929100 1.097261 -1.321078 -1.498295 6.937278 -0.933947 0.368273 4.179828 0.941902 19.114833 1.273900 -0.285800 10.820700 -80.399681 -1.314898 23.933254 15.716854 -30.502960 -5.593722 -0.104454 -1.966390 -27.001300 -7.125000 0.000000 0.000000 79.911831 -3.004376 13.554588 -21.634356 34.226129 -7.653751 -0.771344 -0.003682 -9.059325 7.125000 0.000000 0.000000 
-9.813652 17.531761 14.906275 176.901746 -13.595439 -172.267980 -27.841849 -3.772153 -12.521625 1.856075 8.046185 26.420438 -1.094736 7.255679 -8.603175 0.447000 -4.289500 -11.892500 15.645349 7.488188 -36.096939 -4.242530 -13.117985 39.468478 1.076657 -7.426035 -5.150991 -0.158800 -2.567800 7.077600 1.119434 -1.377630 -1.527799 7.254009 -0.965176 0.346059 4.138362 1.013643 19.090904 1.280400 -0.285400 10.728700 -80.704828 -1.878602 23.071080 15.225497 -29.863565 -5.346122 0.024827 -1.814435 -27.796415 -7.125000 0.000000 0.000000 79.896613 -2.829346 13.723763 -22.258481 34.852825 -8.007349 -0.745818 -0.006461 -12.424349 7.125000 0.000000 0.000000 
-9.846730 17.548250 14.862440 176.629404 -13.357081 -172.032328 -28.267770 -3.623904 -12.149311 1.743201 7.815235 25.757611 -1.170149 7.540941 -8.503636 0.479100 -4.438800 -12.314700 15.420274 7.402964 -36.764471 -3.855677 -12.712936 37.797387 1.395648 -8.880016 -3.724828 -0.126500 -2.292600 6.315100 1.055724 -1.521457 -1.576925 7.056749 -1.026584 0.274822 3.898715 1.147017 19.321698 1.093500 -0.222800 10.886100 -80.682002 -2.232153 23.693928 15.784795 -30.517898 -5.640964 0.110498 -2.005550 -32.560208 -7.125000 0.000000 0.000000 80.226864 -2.745820 14.071944 -22.930009 35.506680 -8.397929 -0.742992 0.017598 -14.557817 7.125000 0.000000 0.000000 
-9.876188 17.565945 14.813879 176.500175 -13.069533 -171.978284 -28.510558 -3.445178 -11.638596 1.633766 7.581505 25.096767 -1.247719 7.839623 -8.442352 0.462300 -4.361300 -12.095400 15.299730 7.520088 -37.123423 -3.501327 -12.295928 36.185098 1.677630 -10.211297 -2.324748 -0.153500 -2.524600 6.957800 0.926234 -1.669816 -1.666932 6.486584 -1.069550 -0.068868 3.981584 1.347925 19.721392 1.047200 -0.094300 11.136000 -80.400313 -2.486174 23.350115 15.787925 -30.487361 -5.655502 0.160944 -2.098033 -34.517617 -7.125000 0.000000 0.000000 80.967156 -2.968861 14.870407 -23.839888 36.370181 -8.929481 -0.731462 0.051888 -17.959054 7.125000 0.000000 0.000000 
-9.896295 17.581830 14.767933 176.660038 -12.809225 -171.959209 -28.370770 -3.272804 -11.282736 1.530550 7.372051 24.477260 -1.315394 8.104151 -8.415934 0.476600 -4.427400 -12.282400 15.438940 8.010564 -37.375717 -3.176253 -11.871818 34.628763 1.989338 -11.730526 -1.204937 -0.241400 -3.162000 8.730100 0.894533 -1.743262 -1.704672 6.214125 -1.095107 -0.260320 4.164101 1.420611 19.939306 1.113900 -0.041400 11.277200 -80.397764 -3.015932 23.138362 15.705432 -30.332249 -5.606026 0.186450 -2.076940 -36.357028 -7.125000 0.000000 0.000000 81.442076 -2.928558 15.303248 -24.528010 37.003236 -9.338685 -0.722756 0.070207 -20.395952 7.125000 0.000000 0.000000 
-9.916403 17.598519 14.725907 176.935311 -12.482190 -171.926700 -28.109192 -3.054987 -11.045947 1.445972 7.201458 23.959730 -1.397826 8.421865 -8.326107 0.480100 -4.443600 -12.328100 15.735889 8.485991 -37.642481 -2.873228 -11.454904 33.144439 2.250938 -13.021003 -0.372148 -0.382100 -3.969600 10.991200 0.921120 -1.718776 -1.686031 6.165110 -1.088281 -0.246063 4.356351 1.328378 19.919197 1.242700 -0.087900 11.240900 -80.702840 -3.748828 23.365970 15.911728 -30.512749 -5.698838 0.239281 -2.059620 -38.933348 -7.125000 0.000000 0.000000 81.650368 -2.572862 15.553706 -24.953609 37.389493 -9.595993 -0.719613 0.073917 -21.072755 7.125000 0.000000 0.000000 
-9.939628 17.607266 14.684384 176.779654 -12.170062 -171.867622 -28.373843 -2.794696 -10.704592 1.377828 7.047048 23.524025 -1.487260 8.774067 -8.256318 0.540800 -4.711500 -13.087500 15.628148 8.709430 -37.850629 -2.601917 -11.069996 31.760118 2.482290 -14.184874 0.445969 -0.343800 -3.767400 10.423300 0.905526 -1.768810 -1.633005 6.187144 -1.128045 -0.150546 4.445962 1.301063 19.545377 1.322400 -0.093400 10.957400 -81.060512 -4.434120 23.760511 16.443503 -31.090820 -5.973127 0.304492 -2.124641 -42.053255 -7.125000 0.000000 0.000000 81.846270 -2.192695 16.308035 -25.807509 38.167044 -10.120711 -0.711009 0.078313 -21.404672 7.125000 0.000000 0.000000 
